HIERARCHY
ROOT Hips
{
	OFFSET -32.860001 56.121803 44.745396
	CHANNELS 6 Xposition Yposition Zposition Zrotation Xrotation Yrotation
	JOINT Chest
	{
		OFFSET -0.637402 0.831600 5.390099
		CHANNELS 6 Xposition Yposition Zposition Zrotation Xrotation Yrotation
		JOINT Chest2
		{
			OFFSET 0.000000 0.000000 4.429901
			CHANNELS 6 Xposition Yposition Zposition Zrotation Xrotation Yrotation
			JOINT Neck
			{
				OFFSET 0.000000 0.000000 10.301395
				CHANNELS 6 Xposition Yposition Zposition Zrotation Xrotation Yrotation
				JOINT Head
				{
					OFFSET 0.000000 0.000000 2.173897
					CHANNELS 6 Xposition Yposition Zposition Zrotation Xrotation Yrotation
					End Site
					{
						OFFSET 0.000000 0.000000 8.298004
					}
				}
			}
			JOINT LeftCollar
			{
				OFFSET 2.142401 -0.572701 5.717800
				CHANNELS 6 Xposition Yposition Zposition Zrotation Xrotation Yrotation
				JOINT LeftShoulder
				{
					OFFSET 5.674000 0.000000 0.000000
					CHANNELS 6 Xposition Yposition Zposition Zrotation Xrotation Yrotation
					JOINT LeftElbow
					{
						OFFSET 0.000000 0.000000 -12.238701
						CHANNELS 6 Xposition Yposition Zposition Zrotation Xrotation Yrotation
						JOINT LeftWrist
						{
							OFFSET 0.000000 0.000000 -10.253700
							CHANNELS 6 Xposition Yposition Zposition Zrotation Xrotation Yrotation
							End Site
							{
								OFFSET 0.000000 0.000000 -2.173901
							}
						}
					}
				}
			}
			JOINT RightCollar
			{
				OFFSET -2.882599 -1.580101 6.695801
				CHANNELS 6 Xposition Yposition Zposition Zrotation Xrotation Yrotation
				JOINT RightShoulder
				{
					OFFSET -4.235600 0.000000 0.000000
					CHANNELS 6 Xposition Yposition Zposition Zrotation Xrotation Yrotation
					JOINT RightElbow
					{
						OFFSET 0.000000 0.000000 -10.709900
						CHANNELS 6 Xposition Yposition Zposition Zrotation Xrotation Yrotation
						JOINT RightWrist
						{
							OFFSET 0.000000 0.000000 -11.716801
							CHANNELS 6 Xposition Yposition Zposition Zrotation Xrotation Yrotation
							End Site
							{
								OFFSET 0.000000 0.000000 -2.173901
							}
						}
					}
				}
			}
		}
	}
	JOINT LeftHip
	{
		OFFSET 2.279499 0.210400 -2.475502
		CHANNELS 6 Xposition Yposition Zposition Zrotation Xrotation Yrotation
		JOINT LeftKnee
		{
			OFFSET 0.000000 -0.000004 -20.742800
			CHANNELS 6 Xposition Yposition Zposition Zrotation Xrotation Yrotation
			JOINT LeftAnkle
			{
				OFFSET 0.000000 0.000000 -16.666000
				CHANNELS 6 Xposition Yposition Zposition Zrotation Xrotation Yrotation
				End Site
				{
					OFFSET 0.000000 -8.310898 0.000000
				}
			}
		}
	}
	JOINT RightHip
	{
		OFFSET -1.961899 0.232300 -2.727402
		CHANNELS 6 Xposition Yposition Zposition Zrotation Xrotation Yrotation
		JOINT RightKnee
		{
			OFFSET 0.000000 -0.000004 -20.526800
			CHANNELS 6 Xposition Yposition Zposition Zrotation Xrotation Yrotation
			JOINT RightAnkle
			{
				OFFSET 0.000000 0.000000 -16.867300
				CHANNELS 6 Xposition Yposition Zposition Zrotation Xrotation Yrotation
				End Site
				{
					OFFSET 0.000000 -7.186401 0.000000
				}
			}
		}
	}
}
MOTION
Frames: 7
Frame Time: 0.041667
45.059822 21.038204 30.752193 1164.190335 -22.152697 -7.424823 -0.637402 0.831601 5.390103 43.997374 7.361527 -7.337202 0.000004 -0.000003 4.429904 -10.996828 -1.419748 0.215729 -0.000004 -0.000003 10.301396 334.307133 13.224550 9.295063 -0.000003 -0.000010 2.173898 -359.486762 0.401429 -2.359127 2.142398 -0.572705 5.717798 -4.315644 9.953808 1.524242 5.673998 0.000000 0.000008 164.710668 -214.647328 162.822257 0.000004 -0.000001 -12.238701 -547.188857 -147.801196 -172.367514 0.000001 -0.000002 -10.253705 817.674949 -168.382277 180.261738 -2.882600 -1.580098 6.695800 15.315828 7.420920 -27.724305 -4.235603 -0.000008 0.000004 -123.990036 214.720671 -57.106966 -0.000004 -0.000011 -10.709906 132.721531 -155.799607 150.808432 -0.000009 0.000007 -11.716811 98.483658 15.298550 52.383221 2.279502 0.210406 -2.475504 406.862867 -34.071716 52.666277 -0.000004 -0.000008 -20.742807 195.670863 -21.111608 68.408695 -0.000002 0.000004 -16.666000 -297.338215 13.782096 38.718372 -1.961899 0.232305 -2.727398 -995.718528 30.820252 -36.754044 -0.000001 0.000003 -20.526798 898.444067 149.903774 -252.473462 -0.000002 -0.000000 -16.867304 -36.768445 14.097755 -13.265968
45.044907 21.031796 30.721691 1164.079413 -22.224870 -7.434157 -0.637402 0.831599 5.390100 43.953586 7.423428 -7.279638 -0.000000 -0.000001 4.429898 -11.026229 -1.426050 0.196070 -0.000001 0.000004 10.301409 334.462916 13.169804 9.257321 -0.000003 -0.000002 2.173897 -359.521924 0.380524 -2.350701 2.142399 -0.572704 5.717803 -4.241875 9.917322 1.527138 5.674002 -0.000003 0.000003 164.750119 -214.624515 162.920174 0.000000 -0.000002 -12.238696 -547.319451 -147.808955 -172.431910 -0.000005 -0.000001 -10.253702 817.836852 -168.433162 180.296449 -2.882594 -1.580091 6.695799 15.377546 7.430862 -27.861446 -4.235607 0.000002 0.000002 -124.619889 214.543509 -57.953158 -0.000003 -0.000008 -10.709908 132.474265 -155.974145 150.751578 0.000001 0.000006 -11.716799 98.732741 15.228306 52.494686 2.279494 0.210407 -2.475500 406.907536 -34.094044 52.635538 -0.000006 -0.000009 -20.742805 195.661219 -21.170912 68.473978 -0.000012 0.000004 -16.665993 -297.289885 13.756978 38.758731 -1.961900 0.232303 -2.727394 -995.601595 30.799478 -36.864771 -0.000003 -0.000003 -20.526798 898.470896 149.880100 -252.582581 -0.000000 -0.000003 -16.867302 -36.887447 13.866016 -13.340037
45.031815 21.025204 30.692688 1163.978872 -22.292296 -7.432658 -0.637396 0.831601 5.390095 43.893640 7.476842 -7.224710 -0.000004 -0.000004 4.429896 -11.047321 -1.431716 0.177238 -0.000007 -0.000001 10.301402 334.613399 13.112743 9.225699 -0.000005 -0.000003 2.173896 -359.537825 0.355721 -2.354896 2.142395 -0.572696 5.717798 -4.176064 9.874848 1.541364 5.673999 -0.000007 0.000013 164.774134 -214.603628 163.017477 0.000001 -0.000000 -12.238706 -547.429280 -147.832724 -172.484434 -0.000002 -0.000006 -10.253700 818.000995 -168.487175 180.329726 -2.882598 -1.580099 6.695798 15.471476 7.462889 -27.983676 -4.235606 -0.000002 -0.000008 -125.252269 214.381265 -58.782637 0.000005 0.000000 -10.709890 132.117059 -156.224868 150.670831 -0.000007 -0.000005 -11.716807 99.086941 15.144064 52.611120 2.279496 0.210406 -2.475506 406.948845 -34.124991 52.599560 -0.000004 0.000000 -20.742802 195.655249 -21.236455 68.533790 -0.000001 0.000005 -16.665998 -297.243139 13.731687 38.799064 -1.961898 0.232304 -2.727400 -995.490782 30.767161 -36.977524 0.000001 0.000001 -20.526802 898.479147 149.839665 -252.670609 -0.000000 0.000004 -16.867306 -36.974249 13.655671 -13.397904
45.020409 21.018803 30.665192 1163.889807 -22.354968 -7.421435 -0.637401 0.831597 5.390100 43.821753 7.521753 -7.174287 -0.000002 -0.000001 4.429898 -11.061206 -1.435795 0.159497 -0.000002 -0.000001 10.301395 334.751697 13.054415 9.202024 -0.000001 0.000006 2.173903 -359.535940 0.328918 -2.367899 2.142397 -0.572700 5.717798 -4.117670 9.828408 1.564403 5.673999 -0.000007 0.000006 164.786032 -214.583206 163.112021 0.000005 0.000000 -12.238703 -547.514521 -147.871519 -172.520647 -0.000004 0.000005 -10.253698 818.157106 -168.541461 180.359136 -2.882601 -1.580091 6.695802 15.592108 7.513382 -28.088755 -4.235600 0.000000 0.000004 -125.874321 214.237039 -59.582780 0.000001 0.000006 -10.709894 131.710445 -156.515206 150.589320 -0.000005 -0.000003 -11.716795 99.483672 15.046874 52.727725 2.279499 0.210395 -2.475510 406.985373 -34.163851 52.559272 -0.000004 -0.000004 -20.742798 195.659184 -21.297787 68.590549 -0.000010 0.000003 -16.665995 -297.206393 13.707531 38.833802 -1.961896 0.232295 -2.727404 -995.381499 30.723598 -37.092944 0.000001 0.000001 -20.526804 898.465377 149.786089 -252.738528 -0.000002 0.000006 -16.867302 -37.029707 13.470023 -13.436768
45.010712 21.012600 30.639591 1163.812872 -22.414031 -7.402820 -0.637399 0.831592 5.390102 43.741300 7.560719 -7.129451 0.000000 -0.000001 4.429902 -11.068968 -1.438745 0.143040 -0.000006 -0.000001 10.301399 334.880022 12.995606 9.183622 -0.000003 -0.000001 2.173897 -359.520285 0.300577 -2.388664 2.142395 -0.572695 5.717796 -4.067467 9.780967 1.595398 5.673999 -0.000006 0.000009 164.783095 -214.562975 163.204939 0.000001 0.000000 -12.238703 -547.566102 -147.926243 -172.536903 -0.000002 0.000003 -10.253701 818.296332 -168.594231 180.383821 -2.882594 -1.580094 6.695791 15.732245 7.578576 -28.185483 -4.235614 0.000000 -0.000008 -126.470774 214.103864 -60.334906 -0.000000 0.000004 -10.709902 131.278667 -156.827318 150.513313 -0.000004 0.000007 -11.716805 99.898313 14.942407 52.843135 2.279499 0.210395 -2.475502 407.017530 -34.206168 52.516382 -0.000003 0.000003 -20.742796 195.669005 -21.357648 68.642554 -0.000004 0.000008 -16.665997 -297.176640 13.684790 38.865108 -1.961901 0.232296 -2.727404 -995.274621 30.672365 -37.210211 -0.000005 -0.000005 -20.526794 898.437619 149.730560 -252.789618 -0.000003 -0.000004 -16.867304 -37.062024 13.308643 -13.463703
45.002396 21.007004 30.615993 1163.746537 -22.466920 -7.381184 -0.637408 0.831600 5.390098 43.656674 7.594792 -7.087389 -0.000005 0.000002 4.429899 -11.071112 -1.440599 0.127957 -0.000003 0.000005 10.301400 334.993677 12.937575 9.171305 -0.000001 -0.000002 2.173903 -359.594925 0.254541 -2.476434 2.142398 -0.572695 5.717800 -4.023464 9.732349 1.631515 5.673999 -0.000010 0.000013 164.770145 -214.543536 163.292420 -0.000001 -0.000004 -12.238701 -547.589380 -147.993493 -172.536985 -0.000005 -0.000003 -10.253702 818.416161 -168.643531 180.403929 -2.882597 -1.580092 6.695795 15.883468 7.652781 -28.272376 -4.235600 0.000002 0.000000 -127.029006 213.983652 -61.029065 -0.000005 0.000002 -10.709902 130.847682 -157.143310 150.447388 -0.000008 0.000007 -11.716800 100.307427 14.836590 52.955867 2.279495 0.210405 -2.475508 407.048566 -34.250151 52.475404 -0.000006 -0.000003 -20.742805 195.682843 -21.415616 68.688719 -0.000003 0.000001 -16.666002 -297.152680 13.663780 38.894178 -1.961899 0.232305 -2.727400 -995.170255 30.617549 -37.324095 -0.000004 -0.000001 -20.526802 898.400682 149.681301 -252.826610 -0.000002 0.000002 -16.867304 -37.079553 13.171355 -13.480738
44.995621 21.001900 30.594593 1163.690147 -22.512312 -7.359239 -0.637402 0.831609 5.390100 43.573383 7.623820 -7.048135 0.000002 0.000004 4.429904 -11.069729 -1.441415 0.114485 -0.000002 -0.000001 10.301395 335.092988 12.882280 9.162916 0.000004 0.000001 2.173894 -359.552059 0.230094 -2.499052 2.142398 -0.572696 5.717804 -3.986219 9.685963 1.671083 5.674000 0.000001 0.000000 164.749968 -214.523210 163.371773 0.000002 0.000000 -12.238699 -547.589598 -148.069718 -172.524786 0.000004 0.000004 -10.253694 818.516155 -168.687859 180.419338 -2.882595 -1.580095 6.695802 16.035157 7.729800 -28.352378 -4.235600 -0.000010 0.000004 -127.535423 213.875612 -61.652484 0.000000 0.000002 -10.709900 130.424539 -157.456023 150.387556 -0.000005 -0.000008 -11.716800 100.710408 14.733307 53.060669 2.279499 0.210407 -2.475504 407.079930 -34.292683 52.440437 -0.000005 -0.000011 -20.742800 195.703334 -21.460811 68.732521 -0.000009 -0.000010 -16.665997 -297.142162 13.645276 38.913582 -1.961901 0.232303 -2.727400 -995.070917 30.562798 -37.430581 -0.000002 -0.000007 -20.526804 898.356859 149.638271 -252.851909 0.000001 0.000002 -16.867298 -37.085376 13.057400 -13.489149
